<svg xmlns="http://www.w3.org/2000/svg" width="900" height="300" viewBox="0 0 900 300" role="img" aria-labelledby="title desc">
  <title id="title">Trailing twelve-month public GitHub activity</title>
  <desc id="desc">Public contribution activity for Yo-DDV from 2025-07-10 through 2026-07-10.</desc>
  <style>
    .bg { fill: #ffffff; stroke: #d0d7de; }
    .panel { fill: #f6f8fa; stroke: #d8dee4; }
    .title { fill: #1f2328; font: 700 22px -apple-system, BlinkMacSystemFont, "Segoe UI", sans-serif; }
    .subtitle { fill: #636c76; font: 400 13px -apple-system, BlinkMacSystemFont, "Segoe UI", sans-serif; }
    .metric { fill: #1f2328; font: 700 25px -apple-system, BlinkMacSystemFont, "Segoe UI", sans-serif; }
    .label { fill: #636c76; font: 500 12px -apple-system, BlinkMacSystemFont, "Segoe UI", sans-serif; }
    .body { fill: #1f2328; font: 500 13px -apple-system, BlinkMacSystemFont, "Segoe UI", sans-serif; }
    .muted { fill: #636c76; font: 400 11px -apple-system, BlinkMacSystemFont, "Segoe UI", sans-serif; }
    @media (prefers-color-scheme: dark) {
      .bg { fill: #0d1117; stroke: #30363d; }
      .panel { fill: #161b22; stroke: #30363d; }
      .title, .metric, .body { fill: #f0f6fc; }
      .subtitle, .label, .muted { fill: #8b949e; }
    }
  </style>
  <rect class="bg" x="0.5" y="0.5" width="899" height="299" rx="8" />
  <text class="title" x="28" y="38">Open-source activity</text>
  <text class="subtitle" x="28" y="60">Trailing twelve months of public GitHub data</text>
  <g>
    <rect class="panel" x="28" y="78" width="196" height="70" rx="8" />
    <text class="metric" x="44" y="108">140</text>
    <text class="label" x="44" y="132">public contributions</text>
  </g>
  <g>
    <rect class="panel" x="240" y="78" width="196" height="70" rx="8" />
    <text class="metric" x="256" y="108">49</text>
    <text class="label" x="256" y="132">pull requests</text>
  </g>
  <g>
    <rect class="panel" x="452" y="78" width="196" height="70" rx="8" />
    <text class="metric" x="468" y="108">26</text>
    <text class="label" x="468" y="132">reviews</text>
  </g>
  <g>
    <rect class="panel" x="664" y="78" width="196" height="70" rx="8" />
    <text class="metric" x="680" y="108">12</text>
    <text class="label" x="680" y="132">active days</text>
  </g>
  <g>
    <rect x="35" y="248.0" width="44" height="2.0" rx="4" fill="#2f81f7" />
    <text class="muted" x="57" y="268" text-anchor="middle">Aug</text>
  </g>
  <g>
    <rect x="106" y="248.0" width="44" height="2.0" rx="4" fill="#2f81f7" />
    <text class="muted" x="128" y="268" text-anchor="middle">Sep</text>
  </g>
  <g>
    <rect x="177" y="248.0" width="44" height="2.0" rx="4" fill="#2f81f7" />
    <text class="muted" x="199" y="268" text-anchor="middle">Oct</text>
  </g>
  <g>
    <rect x="248" y="248.0" width="44" height="2.0" rx="4" fill="#2f81f7" />
    <text class="muted" x="270" y="268" text-anchor="middle">Nov</text>
  </g>
  <g>
    <rect x="319" y="248.0" width="44" height="2.0" rx="4" fill="#2f81f7" />
    <text class="muted" x="341" y="268" text-anchor="middle">Dec</text>
  </g>
  <g>
    <rect x="390" y="248.0" width="44" height="2.0" rx="4" fill="#2f81f7" />
    <text class="muted" x="412" y="268" text-anchor="middle">Jan</text>
  </g>
  <g>
    <rect x="461" y="248.0" width="44" height="2.0" rx="4" fill="#2f81f7" />
    <text class="muted" x="483" y="268" text-anchor="middle">Feb</text>
  </g>
  <g>
    <rect x="532" y="248.0" width="44" height="2.0" rx="4" fill="#2f81f7" />
    <text class="muted" x="554" y="268" text-anchor="middle">Mar</text>
  </g>
  <g>
    <rect x="603" y="248.0" width="44" height="2.0" rx="4" fill="#2f81f7" />
    <text class="muted" x="625" y="268" text-anchor="middle">Apr</text>
  </g>
  <g>
    <rect x="674" y="248.0" width="44" height="2.0" rx="4" fill="#2f81f7" />
    <text class="muted" x="696" y="268" text-anchor="middle">May</text>
  </g>
  <g>
    <rect x="745" y="238.8" width="44" height="11.2" rx="4" fill="#2f81f7" />
    <text class="muted" x="767" y="268" text-anchor="middle">Jun</text>
  </g>
  <g>
    <rect x="816" y="174.0" width="44" height="76.0" rx="4" fill="#2f81f7" />
    <text class="muted" x="838" y="268" text-anchor="middle">Jul</text>
  </g>
  <text class="muted" x="872" y="286" text-anchor="end">Updated 2026-07-10</text>
</svg>
